/vscmnt/brussel_pixiu_data/_data_brussel/112/vsc11236/PredSimResults/SUBJ10opt3D/expIG/worker_15.mot
version=1
nRows=7
nColumns=50
inDegrees=yes
endheader
                time	         pelvis_tilt	         pelvis_list	     pelvis_rotation	           pelvis_tx	           pelvis_ty	           pelvis_tz	       hip_flexion_r	     hip_adduction_r	      hip_rotation_r	        knee_angle_r	       ankle_angle_r	         mtp_angle_r	       hip_flexion_l	     hip_adduction_l	      hip_rotation_l	        knee_angle_l	       ankle_angle_l	         mtp_angle_l	    lumbar_extension	      lumbar_bending	     lumbar_rotation	 ercspn_r/activation	 intobl_r/activation	 extobl_r/activation	    abd_r/activation	    add_r/activation	hamstrings_r/activation	bifemsh_r/activation	glut_max_r/activation	iliopsoas_r/activation	rect_fem_r/activation	  vasti_r/activation	gastroc_r/activation	 soleus_r/activation	tib_ant_r/activation	 ercspn_l/activation	 intobl_l/activation	 extobl_l/activation	    abd_l/activation	    add_l/activation	hamstrings_l/activation	bifemsh_l/activation	glut_max_l/activation	iliopsoas_l/activation	rect_fem_l/activation	  vasti_l/activation	gastroc_l/activation	 soleus_l/activation	tib_ant_l/activation	
          0.65766127	        -10.17914090	         -0.22837219	          0.27284177	          1.31532253	          0.83167373	          0.00113110	         38.11658873	          4.59302696	          5.68698052	        -33.96123125	          3.38432594	          0.19134407	         -6.23196951	          2.85501416	         -3.82754672	        -30.11919623	        -15.16095992	         25.10963452	         -4.75688983	          2.10866135	         -6.75131036	          0.18090579	          0.01334652	          0.00999999	          0.03101695	          0.21980174	          0.38443577	          0.22231468	          0.00999999	          0.02250499	          0.00999999	          0.00999999	          0.01109609	          0.01109609	          0.27946382	          0.14756038	          0.11089942	          0.00999999	          0.01866475	          0.14224564	          0.03163158	          0.01000006	          0.02549961	          0.71789896	          0.03483731	          0.01515938	          0.13799531	          0.06204922	          0.00999999	
          0.66423788	        -10.11933163	         -0.15344078	          0.18242074	          1.32993136	          0.82864185	          0.00168928	         37.48637047	          4.87090057	          6.22072303	        -33.79887039	          4.16540319	          0.05644812	         -5.72461020	          2.78867517	         -4.11472097	        -32.42761189	        -16.30548724	         23.85978372	         -4.59926993	          2.13393133	         -6.70584341	          0.16303544	          0.01202811	          0.00999999	          0.08362675	          0.34955103	          0.34646019	          0.20035385	          0.00999999	          0.02028189	          0.00999999	          0.06062064	          0.00999999	          0.00999999	          0.25185765	          0.15810360	          0.09994449	          0.00999999	          0.01682100	          0.12819424	          0.03135909	          0.08103021	          0.02298069	          0.64698302	          0.03139599	          0.01366189	          0.12436377	          0.05591983	          0.03941328	
          0.67081449	        -10.05708034	         -0.09190504	          0.08575655	          1.34452296	          0.82531372	          0.00223204	         36.85777140	          5.09624502	          6.61214962	        -34.54682193	          5.78328539	          0.21316370	         -5.05726588	          2.69977924	         -4.36480397	        -34.98915436	        -17.34371314	         22.29225194	         -4.44056739	          2.17052699	         -6.61951543	          0.14693037	          0.01083994	          0.01109609	          0.11308109	          0.31502146	          0.31223595	          0.18056237	          0.02100350	          0.01827839	          0.00999999	          0.08074403	          0.01515938	          0.14609127	          0.22697849	          0.14248572	          0.10051400	          0.01109609	          0.01515938	          0.11553088	          0.03247412	          0.08663229	          0.02071060	          0.58307233	          0.02829461	          0.01231234	          0.11207879	          0.05039592	          0.11321063	
          0.67739110	         -9.99583342	         -0.07243992	         -0.02044711	          1.35904874	          0.82175789	          0.00273718	         36.16909696	          5.27756094	          6.89533268	        -35.79665599	          8.25436877	          0.97049337	         -4.25848567	          2.56369547	         -4.58832300	        -37.75522118	        -17.97468432	         20.51338964	         -4.28614390	          2.25458027	         -6.48781409	          0.13241621	          0.00999999	          0.00999999	          0.17750898	          0.28390282	          0.28139246	          0.16272595	          0.09368292	          0.01647280	          0.00999999	          0.07276792	          0.01366189	          0.15839971	          0.20455696	          0.14797310	          0.09167112	          0.00999999	          0.01366189	          0.10411843	          0.02926625	          0.07807453	          0.01866475	          0.52547492	          0.02549960	          0.01109609	          0.13556634	          0.04541768	          0.11466835	
          0.68396772	         -9.93736192	         -0.08459680	         -0.12917034	          1.37343277	          0.81808415	          0.00323419	         35.40739754	          5.46831195	          7.13421748	        -36.91955731	         10.72885422	          1.87403010	         -3.34734636	          2.38927570	         -4.78884130	        -40.63118188	        -18.08039369	         18.85601591	         -4.14606870	          2.36885817	         -6.32327627	          0.11933578	          0.01231234	          0.00999999	          0.24207533	          0.25585815	          0.25359577	          0.14665145	          0.14628100	          0.01484558	          0.00999999	          0.18353376	          0.01231234	          0.21779374	          0.18435028	          0.16845471	          0.08261561	          0.01366189	          0.01231234	          0.09383334	          0.02637525	          0.11106967	          0.01682100	          0.47356713	          0.02298068	          0.00999999	          0.15953739	          0.04093120	          0.14951292	
          0.69054433	         -9.88365368	         -0.12230073	         -0.24961506	          1.38757186	          0.81448746	          0.00371725	         34.65030113	          5.66720391	          7.29178424	        -37.95121161	         12.95485958	          2.85473080	         -2.31931983	          2.18477349	         -4.97890622	        -43.56179227	        -17.86979457	         17.33351076	         -4.03442134	          2.50787143	         -6.12182011	          0.10754748	          0.01109609	          0.00999999	          0.29545615	          0.23058381	          0.22854492	          0.13216484	          0.16514070	          0.01337909	          0.00999999	          0.28150476	          0.01109609	          0.27249720	          0.16613968	          0.20121438	          0.07948276	          0.01231234	          0.01109609	          0.08456424	          0.02376983	          0.11652024	          0.01515938	          0.42678692	          0.02071059	          0.00999999	          0.14377787	          0.03688791	          0.16292592	
          0.69712094	         -9.83628790	         -0.18949967	         -0.38173945	          1.40141512	          0.81116881	          0.00417997	         33.93316512	          5.88555269	          7.39773494	        -38.94508926	         14.89169272	          3.89193324	         -1.17916036	          1.94451546	         -5.16300962	        -46.48618989	        -17.46722239	         15.93308413	         -3.95777777	          2.67518675	         -5.88719069	          0.09692366	          0.00999999	          0.00999999	          0.31999043	          0.20780614	          0.20596865	          0.11910925	          0.14882767	          0.01205747	          0.00999999	          0.37461604	          0.00999999	          0.32752134	          0.14972796	          0.23379326	          0.10127579	          0.01109609	          0.00999999	          0.07621076	          0.02142179	          0.13839183	          0.01366189	          0.38462779	          0.01866474	          0.00999999	          0.12978486	          0.03324403	          0.16706461	
